<?xml version="1.0" standalone="no"?>
<!DOCTYPE svg PUBLIC "-//W3C//DTD SVG 20010904//EN"
 "http://www.w3.org/TR/2001/REC-SVG-20010904/DTD/svg10.dtd">
<svg version="1.0" xmlns="http://www.w3.org/2000/svg"
 width="512.000000pt" height="512.000000pt" viewBox="0 0 512.000000 512.000000"
 preserveAspectRatio="xMidYMid meet">

<g transform="translate(0.000000,512.000000) scale(0.100000,-0.100000)"
fill="#000000" stroke="none">
<path d="M1529 3957 c-29 -16 -54 -40 -74 -72 l-30 -48 0 -1277 0 -1277 30
-48 c20 -32 45 -56 74 -72 l44 -23 843 0 c570 0 852 3 871 11 38 14 92 67 109
106 21 48 21 2558 0 2606 -17 39 -71 92 -109 106 -19 8 -301 11 -871 11 l-843
0 -44 -23z m1031 -612 l0 -155 135 0 135 0 0 -145 0 -145 -135 0 -135 0 0
-415 0 -416 -142 3 -143 3 -3 412 -2 412 -133 3 -132 3 -3 143 -3 142 136 0
135 0 0 148 c0 82 3 152 7 155 3 4 69 7 145 7 l138 0 0 -155z"/>
</g>
</svg>
