<?xml version="1.0" encoding="UTF-8"?>
<!DOCTYPE svg PUBLIC "-//W3C//DTD SVG 1.1//EN" "http://www.w3.org/Graphics/SVG/1.1/DTD/svg11.dtd">
<svg xmlns="http://www.w3.org/2000/svg" version="1.1" width="512px" height="512px" style="shape-rendering:geometricPrecision; text-rendering:geometricPrecision; image-rendering:optimizeQuality; fill-rule:evenodd; clip-rule:evenodd" xmlns:xlink="http://www.w3.org/1999/xlink">
<g><path style="opacity:0.992" fill="#fec51b" d="M 233.5,-0.5 C 248.167,-0.5 262.833,-0.5 277.5,-0.5C 377.805,11.9821 449.305,63.9821 492,155.5C 502.297,180.687 508.797,206.687 511.5,233.5C 511.5,239.833 511.5,246.167 511.5,252.5C 468.167,209.5 424.833,166.5 381.5,123.5C 378.356,118.205 373.689,115.038 367.5,114C 353.837,113.5 340.171,113.333 326.5,113.5C 298.167,113.5 269.833,113.5 241.5,113.5C 212.831,113.333 184.165,113.5 155.5,114C 148.572,116.594 144.072,121.427 142,128.5C 141.333,213.167 141.333,297.833 142,382.5C 143.624,388.449 147.124,392.783 152.5,395.5C 152.369,396.239 152.536,396.906 153,397.5C 191.035,435.368 228.868,473.368 266.5,511.5C 255.5,511.5 244.5,511.5 233.5,511.5C 133.195,499.018 61.6947,447.018 19,355.5C 8.70332,330.313 2.20332,304.313 -0.5,277.5C -0.5,262.833 -0.5,248.167 -0.5,233.5C 11.9821,133.195 63.9821,61.6947 155.5,19C 180.687,8.70332 206.687,2.20332 233.5,-0.5 Z"/></g>
<g><path style="opacity:1" fill="#c92f00" d="M 241.5,113.5 C 241.5,129.5 241.5,145.5 241.5,161.5C 236.637,161.181 231.97,161.514 227.5,162.5C 227.5,172.5 227.5,182.5 227.5,192.5C 218.5,192.5 209.5,192.5 200.5,192.5C 199.506,201.986 199.173,211.652 199.5,221.5C 208.5,221.5 217.5,221.5 226.5,221.5C 226.169,249.338 226.502,277.005 227.5,304.5C 232.167,304.5 236.833,304.5 241.5,304.5C 241.5,335.5 241.5,366.5 241.5,397.5C 212.831,397.667 184.165,397.5 155.5,397C 154.473,396.487 153.473,395.987 152.5,395.5C 147.124,392.783 143.624,388.449 142,382.5C 141.333,297.833 141.333,213.167 142,128.5C 144.072,121.427 148.572,116.594 155.5,114C 184.165,113.5 212.831,113.333 241.5,113.5 Z"/></g>
<g><path style="opacity:1" fill="#930201" d="M 241.5,113.5 C 269.833,113.5 298.167,113.5 326.5,113.5C 334.108,116.667 338.941,122.333 341,130.5C 341.667,213.167 341.667,295.833 341,378.5C 339.671,387.645 334.838,393.978 326.5,397.5C 298.167,397.5 269.833,397.5 241.5,397.5C 241.5,366.5 241.5,335.5 241.5,304.5C 246.167,304.5 250.833,304.5 255.5,304.5C 255.5,276.833 255.5,249.167 255.5,221.5C 264.5,221.5 273.5,221.5 282.5,221.5C 282.5,211.833 282.5,202.167 282.5,192.5C 273.5,192.5 264.5,192.5 255.5,192.5C 255.5,182.167 255.5,171.833 255.5,161.5C 250.833,161.5 246.167,161.5 241.5,161.5C 241.5,145.5 241.5,129.5 241.5,113.5 Z"/></g>
<g><path style="opacity:1" fill="#fefefe" d="M 326.5,113.5 C 340.171,113.333 353.837,113.5 367.5,114C 373.689,115.038 378.356,118.205 381.5,123.5C 381.892,125.179 382.392,126.846 383,128.5C 383.667,213.167 383.667,297.833 383,382.5C 380.833,390 376,394.833 368.5,397C 354.504,397.5 340.504,397.667 326.5,397.5C 334.838,393.978 339.671,387.645 341,378.5C 341.667,295.833 341.667,213.167 341,130.5C 338.941,122.333 334.108,116.667 326.5,113.5 Z"/></g>
<g><path style="opacity:1" fill="#eaa22f" d="M 381.5,123.5 C 424.833,166.5 468.167,209.5 511.5,252.5C 511.5,260.833 511.5,269.167 511.5,277.5C 499.018,377.805 447.018,449.305 355.5,492C 330.313,502.297 304.313,508.797 277.5,511.5C 273.833,511.5 270.167,511.5 266.5,511.5C 228.868,473.368 191.035,435.368 153,397.5C 152.536,396.906 152.369,396.239 152.5,395.5C 153.473,395.987 154.473,396.487 155.5,397C 184.165,397.5 212.831,397.667 241.5,397.5C 269.833,397.5 298.167,397.5 326.5,397.5C 340.504,397.667 354.504,397.5 368.5,397C 376,394.833 380.833,390 383,382.5C 383.667,297.833 383.667,213.167 383,128.5C 382.392,126.846 381.892,125.179 381.5,123.5 Z"/></g>
<g><path style="opacity:1" fill="#fec51b" d="M 227.5,162.5 C 232.167,162.5 236.833,162.5 241.5,162.5C 241.5,209.5 241.5,256.5 241.5,303.5C 236.833,303.5 232.167,303.5 227.5,303.5C 227.5,275.833 227.5,248.167 227.5,220.5C 218.5,220.5 209.5,220.5 200.5,220.5C 200.5,211.167 200.5,201.833 200.5,192.5C 209.5,192.5 218.5,192.5 227.5,192.5C 227.5,182.5 227.5,172.5 227.5,162.5 Z"/></g>
<g><path style="opacity:1" fill="#e9a12e" d="M 227.5,162.5 C 231.97,161.514 236.637,161.181 241.5,161.5C 246.167,161.5 250.833,161.5 255.5,161.5C 255.5,171.833 255.5,182.167 255.5,192.5C 264.5,192.5 273.5,192.5 282.5,192.5C 282.5,202.167 282.5,211.833 282.5,221.5C 273.5,221.5 264.5,221.5 255.5,221.5C 255.5,249.167 255.5,276.833 255.5,304.5C 250.833,304.5 246.167,304.5 241.5,304.5C 236.833,304.5 232.167,304.5 227.5,304.5C 227.5,304.167 227.5,303.833 227.5,303.5C 232.167,303.5 236.833,303.5 241.5,303.5C 241.5,256.5 241.5,209.5 241.5,162.5C 236.833,162.5 232.167,162.5 227.5,162.5 Z"/></g>
<g><path style="opacity:1" fill="#e2760c" d="M 200.5,192.5 C 200.5,201.833 200.5,211.167 200.5,220.5C 209.5,220.5 218.5,220.5 227.5,220.5C 227.5,248.167 227.5,275.833 227.5,303.5C 227.5,303.833 227.5,304.167 227.5,304.5C 226.502,277.005 226.169,249.338 226.5,221.5C 217.5,221.5 208.5,221.5 199.5,221.5C 199.173,211.652 199.506,201.986 200.5,192.5 Z"/></g>
</svg>
